<?xml version="1.0" standalone="no"?>
<!DOCTYPE svg PUBLIC "-//W3C//DTD SVG 20010904//EN"
 "http://www.w3.org/TR/2001/REC-SVG-20010904/DTD/svg10.dtd">
<svg version="1.0" xmlns="http://www.w3.org/2000/svg"
 width="76.000000pt" height="76.000000pt" viewBox="0 0 76.000000 76.000000"
 preserveAspectRatio="xMidYMid meet">
<metadata>
Created by potrace 1.14, written by Peter Selinger 2001-2017
</metadata>
<g transform="translate(0.000000,76.000000) scale(0.100000,-0.100000)"
fill="#000000" stroke="none">
<path d="M336 734 c-17 -17 -22 -74 -7 -90 10 -9 14 -41 12 -84 -1 -24 -2 -23
-28 13 -15 21 -36 40 -47 43 -12 2 -75 3 -141 2 -111 -3 -120 -4 -120 -23 0
-11 9 -21 20 -25 12 -3 20 -13 20 -25 0 -13 8 -21 21 -23 16 -2 20 -8 17 -22
-3 -12 3 -22 16 -29 16 -9 21 -21 21 -51 0 -55 15 -88 50 -108 25 -14 30 -23
30 -53 0 -21 8 -47 19 -60 12 -15 16 -29 11 -39 -12 -22 -1 -66 21 -86 11 -10
39 -20 62 -23 33 -5 42 -10 42 -26 0 -13 8 -21 22 -23 17 -3 24 3 29 22 5 20
13 26 33 26 46 0 67 11 85 41 12 20 15 39 11 59 -4 19 -1 37 11 55 9 15 17 41
16 59 -1 26 4 36 23 44 36 17 57 55 57 108 0 38 3 47 20 52 15 3 19 11 15 28
-3 20 0 24 21 24 20 0 24 4 20 24 -4 20 0 26 16 28 13 2 21 10 21 23 0 19 -8
20 -131 23 l-132 3 -36 -43 -36 -42 0 48 c0 26 7 57 16 71 39 60 -50 130 -100
79z m2 -323 c7 -1 12 -14 12 -31 l0 -30 -72 0 c-72 0 -108 15 -108 46 0 17 65
23 168 15z m252 -13 c0 -35 -28 -48 -106 -48 l-75 0 5 28 c2 15 5 29 5 32 1 3
39 5 86 5 73 0 85 -2 85 -17z m-240 -140 c0 -37 -1 -38 -38 -38 -21 0 -43 5
-50 12 -29 29 -1 64 52 64 35 0 36 -1 36 -38z m152 24 c17 -17 1 -59 -24 -64
-50 -8 -68 1 -68 36 0 18 3 36 7 39 9 10 72 2 85 -11z m-154 -150 c3 -32 2
-33 -30 -30 -26 2 -34 8 -36 27 -4 27 9 39 41 37 17 -1 23 -8 25 -34z m134 15
c12 -20 -11 -47 -42 -47 -26 0 -30 4 -30 28 0 16 3 32 7 36 10 9 56 -3 65 -17z"/>
</g>
</svg>
